<svg version="1.1" id="Layer_1" xmlns="http://www.w3.org/2000/svg" xmlns:xlink="http://www.w3.org/1999/xlink" x="0px" y="0px"
	 width="100%" viewBox="0 0 2160 2160" enable-background="new 0 0 2160 2160" xml:space="preserve">
<path fill="#FDFBFA" opacity="1.000000" stroke="none" 
	d="
M1208.000000,2162.000000 
	C805.379700,2162.000000 403.759369,2162.000000 2.069525,2162.000000 
	C2.069525,1442.129395 2.069525,722.258850 2.069525,2.194151 
	C721.787476,2.194151 1441.574951,2.194151 2161.681152,2.194151 
	C2161.681152,721.999878 2161.681152,1441.999878 2161.681152,2162.000000 
	C1844.257935,2162.000000 1526.629028,2162.000000 1208.000000,2162.000000 
M2025.000000,22.331203 
	C1358.149170,22.331203 691.298218,22.331203 24.194294,22.331203 
	C24.194294,729.900024 24.194294,1436.350586 24.194294,2142.724854 
	C38.644257,2144.679199 2136.993652,2144.069336 2143.864502,2142.185059 
	C2145.847412,2118.329590 2144.851074,30.398754 2142.702148,22.331224 
	C2104.237305,22.331224 2065.618652,22.331224 2025.000000,22.331203 
z"/>
<path fill="#9A0000" opacity="1.000000" stroke="none" 
	d="
M2026.000000,22.331215 
	C2065.618652,22.331224 2104.237305,22.331224 2142.702148,22.331224 
	C2144.851074,30.398754 2145.847412,2118.329590 2143.864502,2142.185059 
	C2136.993652,2144.069336 38.644257,2144.679199 24.194294,2142.724854 
	C24.194294,1436.350586 24.194294,729.900024 24.194294,22.331203 
	C691.298218,22.331203 1358.149170,22.331203 2026.000000,22.331215 
M510.898956,1428.280151 
	C471.097076,1430.678223 434.169678,1421.641357 400.463684,1400.198364 
	C371.661469,1381.875000 348.734161,1358.490112 336.752075,1325.682495 
	C328.136932,1302.093750 322.100250,1277.824951 320.156525,1252.875610 
	C317.519623,1219.029297 315.109497,1185.085571 314.722107,1151.159546 
	C313.751709,1066.178223 313.736115,981.182861 313.836639,896.193726 
	C313.876831,862.217773 315.176453,828.242065 316.034576,794.269592 
	C316.177063,788.629089 316.873627,782.991211 317.527832,777.377075 
	C319.902557,756.998474 331.953430,744.929077 351.137207,739.866455 
	C358.118469,738.024109 365.598358,737.618774 372.872833,737.436035 
	C387.196045,737.076355 401.535583,737.425476 415.866516,737.289124 
	C422.474640,737.226257 426.954041,734.334717 427.002960,729.693054 
	C427.111511,719.389404 426.666260,709.079224 426.406708,698.772766 
	C426.290649,694.164734 423.442627,692.306152 419.254089,692.207214 
	C414.592163,692.097107 409.920013,692.103760 405.260193,692.274475 
	C377.301819,693.298584 349.354095,694.882263 321.387238,695.351929 
	C251.080093,696.532715 180.781738,695.988953 110.525330,692.634521 
	C103.538536,692.300903 96.535751,692.288269 89.539673,692.167664 
	C84.479538,692.080383 80.877098,694.305176 80.715202,699.563660 
	C80.428360,708.880249 80.567009,718.217407 80.795471,727.539307 
	C80.909676,732.199341 83.690468,734.856384 88.369148,735.222656 
	C91.354347,735.456299 94.358704,735.517822 97.354851,735.526611 
	C112.020149,735.569641 126.688866,735.379333 141.350082,735.634155 
	C157.877563,735.921326 167.829590,742.982239 171.800278,759.107727 
	C174.394943,769.644958 175.620697,780.773315 175.664124,791.644104 
	C175.976959,869.970276 175.817947,948.298279 175.834351,1026.625732 
	C175.846985,1086.932007 175.110352,1147.272339 179.896591,1207.450439 
	C181.873566,1232.307373 184.360794,1257.214355 188.459229,1281.791138 
	C194.944855,1320.682983 208.608765,1357.017212 232.645111,1388.802979 
	C261.615753,1427.113647 298.308502,1454.440063 344.963684,1467.815796 
	C389.782745,1480.665039 435.432343,1486.101685 482.014191,1486.505127 
	C529.177551,1486.913696 574.044617,1477.968750 616.680359,1458.007080 
	C659.184204,1438.106934 694.626648,1409.702148 720.876465,1370.377075 
	C749.137146,1328.039429 762.383850,1280.539795 767.695496,1230.682129 
	C770.796204,1201.577393 772.256409,1172.250122 773.276733,1142.981812 
	C775.098938,1090.712769 776.396057,1038.418457 777.221985,986.123901 
	C777.937683,940.805786 777.538879,895.471252 777.942139,850.146667 
	C778.155518,826.171631 779.101562,802.203857 779.582458,778.230103 
	C780.030396,755.895447 799.790100,734.969360 825.420044,737.122559 
	C837.003784,738.095642 848.742004,737.492981 860.400818,737.214539 
	C868.025940,737.032471 869.909668,735.738342 870.157471,730.053101 
	C870.592224,720.076843 870.456055,710.067200 870.282166,700.076416 
	C870.190186,694.790588 866.739685,692.364319 861.774841,692.215881 
	C857.117493,692.076538 852.443420,692.214661 847.785522,692.425659 
	C824.497742,693.480591 801.211548,695.530151 777.927307,695.497131 
	C733.288757,695.433838 688.651001,694.248047 644.015015,693.414551 
	C634.697266,693.240540 625.389526,692.264160 616.075562,692.238464 
	C609.098328,692.219238 606.646240,695.091248 606.547668,702.105286 
	C606.458740,708.434998 606.599182,714.768066 606.652954,721.099548 
	C606.750244,732.558350 609.224792,735.281311 620.561829,735.486023 
	C631.890625,735.690674 643.227539,735.655884 654.557983,735.504578 
	C665.905945,735.353027 675.254700,739.793213 683.282837,747.443970 
	C693.135681,756.833679 698.062805,768.820190 699.835693,781.914612 
	C706.632446,832.116211 711.100525,882.584045 711.744629,933.213013 
	C712.766357,1013.526489 712.621155,1093.857178 712.554382,1174.180298 
	C712.536682,1195.469116 711.879150,1216.835815 709.963745,1238.026611 
	C706.812500,1272.890625 696.915588,1305.998657 679.596924,1336.567383 
	C670.541992,1352.549927 660.382996,1368.125854 645.671631,1379.424805 
	C606.578186,1409.450317 562.344910,1426.152710 510.898956,1428.280151 
M1989.690186,1346.770142 
	C1963.876831,1366.000977 1935.930664,1381.209229 1905.556396,1392.015503 
	C1862.200562,1407.440186 1817.466064,1412.193115 1771.785400,1409.750122 
	C1737.656616,1407.924927 1705.390991,1399.331177 1675.764404,1381.978882 
	C1630.153198,1355.264404 1594.736572,1318.235352 1568.209473,1272.861816 
	C1527.091675,1202.531006 1508.848022,1125.705566 1506.479004,1044.880371 
	C1505.501343,1011.521851 1509.050781,978.354370 1515.947510,945.638550 
	C1524.956787,902.901184 1539.618896,862.436584 1564.386841,826.065308 
	C1590.015137,788.430664 1623.100342,760.042236 1666.067139,743.873474 
	C1707.380493,728.326965 1750.163940,726.297302 1793.139893,732.708618 
	C1846.589355,740.682434 1893.661987,763.481628 1932.481201,801.269958 
	C1974.450806,842.125366 2003.892822,891.308899 2024.079956,946.154236 
	C2025.683716,950.510925 2027.385376,954.919373 2029.739380,958.890137 
	C2032.782959,964.024536 2035.624023,964.755127 2041.535767,962.810669 
	C2046.277344,961.251160 2050.964355,959.513245 2055.625732,957.724854 
	C2064.053467,954.491455 2064.802734,953.499634 2063.740479,944.326782 
	C2060.333008,914.901794 2056.667969,885.506592 2053.278564,856.079590 
	C2048.670166,816.071289 2044.141357,776.053223 2039.770874,736.018433 
	C2038.760498,726.764587 2038.590210,717.421326 2037.920654,708.127319 
	C2037.353760,700.256348 2035.360107,698.246765 2027.468750,697.839966 
	C2023.149658,697.617249 2018.799805,698.023193 2014.476929,697.837891 
	C2008.417847,697.578125 2005.536133,700.618896 2003.919922,706.211243 
	C2001.427368,714.836060 1998.433472,723.321594 1995.476807,731.805115 
	C1992.523315,740.279846 1990.500854,741.105591 1982.230103,737.101440 
	C1977.439331,734.782104 1972.933716,731.875916 1968.152222,729.535034 
	C1870.979370,681.962158 1769.089111,667.387573 1662.922607,688.377380 
	C1588.033691,703.183411 1523.617065,738.019836 1471.538818,794.741882 
	C1428.707397,841.392761 1397.792603,894.745300 1378.668823,955.071167 
	C1359.621826,1015.155273 1355.520264,1076.610474 1362.625488,1138.839355 
	C1368.017578,1186.064331 1380.383911,1231.612793 1400.050049,1275.027344 
	C1415.271973,1308.631226 1433.897705,1340.229858 1459.671265,1366.784302 
	C1519.748169,1428.681763 1591.652344,1468.303711 1677.844116,1480.487305 
	C1718.573853,1486.244385 1759.352539,1488.297241 1800.348267,1484.405884 
	C1856.816895,1479.045898 1908.586304,1460.207764 1956.304199,1429.823364 
	C2000.096313,1401.938721 2036.417603,1366.000122 2068.501221,1325.530884 
	C2073.876709,1318.750244 2078.995117,1311.744141 2083.869629,1304.594971 
	C2087.609131,1299.110718 2087.714111,1294.466919 2083.803955,1291.038208 
	C2076.873291,1284.960815 2069.439941,1279.456543 2062.263184,1273.749023 
	C2059.985596,1275.319702 2058.483643,1276.088867 2057.327148,1277.213257 
	C2055.422607,1279.064819 2053.555664,1281.010742 2051.995361,1283.151855 
	C2034.611450,1307.005981 2014.108154,1327.805054 1989.690186,1346.770142 
M1176.539917,688.260071 
	C1154.409546,683.269714 1132.120483,679.508423 1109.341919,679.418030 
	C1100.046509,679.381104 1090.751831,679.198608 1081.456421,679.129272 
	C1049.071899,678.887573 1018.017822,684.986450 988.187195,697.818176 
	C964.039490,708.205444 942.979980,723.192810 922.816162,739.689819 
	C891.870850,765.007507 871.210632,797.090820 861.888733,835.848572 
	C849.619324,886.861389 854.368347,937.012085 872.833435,985.882141 
	C881.300903,1008.292542 893.694214,1028.525391 912.000061,1044.223877 
	C940.911865,1069.017578 972.461060,1090.051025 1006.215942,1107.803955 
	C1035.491943,1123.201294 1066.927612,1133.346924 1097.312988,1146.042114 
	C1122.212891,1156.445557 1146.816406,1167.449463 1169.327881,1182.586548 
	C1198.194824,1201.997192 1217.771484,1227.913330 1225.049561,1262.339111 
	C1228.922241,1280.657349 1230.795410,1299.247803 1229.684814,1317.944946 
	C1227.209229,1359.615845 1208.940430,1392.449951 1173.580933,1415.181763 
	C1149.791992,1430.475220 1123.427002,1438.645020 1095.356934,1439.511353 
	C1049.291138,1440.932983 1008.453186,1426.019775 975.292419,1394.033691 
	C937.377136,1357.461548 916.003784,1311.787720 907.909851,1259.887695 
	C906.631592,1251.691406 906.415161,1243.331177 905.660583,1235.051025 
	C905.325562,1231.374634 905.153931,1227.279907 900.608948,1226.310425 
	C890.593567,1224.174438 880.505798,1222.377808 869.487061,1220.257935 
	C868.212830,1224.282959 866.702942,1227.582886 866.175537,1231.033081 
	C865.170837,1237.606323 864.682495,1244.261230 864.058167,1250.889526 
	C861.810913,1274.750732 859.670898,1298.622070 857.350525,1322.475952 
	C854.321655,1353.613892 851.142456,1384.737183 848.067261,1415.870605 
	C847.315063,1423.485352 846.261536,1431.108765 846.155457,1438.739502 
	C846.004761,1449.578003 854.628967,1455.635010 865.040161,1452.548218 
	C872.159912,1450.437256 877.007507,1445.871826 880.356934,1439.225220 
	C882.580383,1434.813110 885.345154,1430.565063 888.480286,1426.746826 
	C893.167114,1421.038574 899.190552,1419.092041 906.166565,1422.687866 
	C910.593201,1424.969727 915.317993,1426.945312 919.198669,1429.969727 
	C944.762573,1449.893311 973.249329,1463.772095 1004.425415,1472.420166 
	C1039.724854,1482.211914 1075.765015,1484.764648 1112.202759,1484.444824 
	C1151.620972,1484.098877 1188.864624,1475.306641 1223.110229,1455.714600 
	C1277.413940,1424.647095 1310.901489,1377.349121 1328.002930,1317.894409 
	C1338.926392,1279.917603 1340.227295,1241.208984 1336.199951,1202.057495 
	C1330.415649,1145.824829 1305.583130,1100.065063 1262.046875,1064.249390 
	C1231.503540,1039.122437 1196.465820,1022.524353 1159.282227,1009.975586 
	C1135.631836,1001.994019 1111.655273,994.844727 1088.426636,985.780334 
	C1057.976318,973.897888 1028.615967,959.574646 1002.953735,938.798706 
	C986.112366,925.164062 974.994873,907.792236 969.422607,886.825012 
	C965.457336,871.904785 964.172791,856.705017 963.953552,841.334656 
	C963.303284,795.733826 990.936890,752.788330 1032.693115,734.002197 
	C1052.066406,725.286133 1072.333252,723.444092 1093.202515,723.970337 
	C1136.838745,725.070496 1173.289795,741.501038 1202.354492,774.147888 
	C1231.345337,806.711914 1251.823364,844.144592 1265.877075,885.248718 
	C1268.497925,892.914246 1272.326538,894.969482 1280.321655,892.792480 
	C1285.460938,891.393188 1290.579468,889.907043 1295.664185,888.321655 
	C1302.494995,886.191711 1303.797852,884.730652 1303.599976,877.721985 
	C1303.421753,871.413086 1302.619019,865.118408 1302.005127,858.825928 
	C1299.614258,834.313110 1297.052856,809.816223 1294.812500,785.289795 
	C1292.299194,757.777466 1290.071411,730.238953 1287.702271,702.713379 
	C1287.303101,698.074829 1287.134888,693.385803 1286.302734,688.821655 
	C1284.752686,680.320190 1279.910034,677.398560 1271.990112,680.541016 
	C1268.395264,681.967285 1265.086548,684.534302 1262.174316,687.166138 
	C1257.485596,691.403442 1253.067993,695.974670 1248.835205,700.674438 
	C1242.685181,707.503174 1235.989136,708.594238 1227.291260,705.320862 
	C1211.108276,699.230652 1194.555420,694.123474 1176.539917,688.260071 
z"/>
<path fill="#FEC327" opacity="1.000000" stroke="none" 
	d="
M511.878479,1428.250488 
	C562.344910,1426.152710 606.578186,1409.450317 645.671631,1379.424805 
	C660.382996,1368.125854 670.541992,1352.549927 679.596924,1336.567383 
	C696.915588,1305.998657 706.812500,1272.890625 709.963745,1238.026611 
	C711.879150,1216.835815 712.536682,1195.469116 712.554382,1174.180298 
	C712.621155,1093.857178 712.766357,1013.526489 711.744629,933.213013 
	C711.100525,882.584045 706.632446,832.116211 699.835693,781.914612 
	C698.062805,768.820190 693.135681,756.833679 683.282837,747.443970 
	C675.254700,739.793213 665.905945,735.353027 654.557983,735.504578 
	C643.227539,735.655884 631.890625,735.690674 620.561829,735.486023 
	C609.224792,735.281311 606.750244,732.558350 606.652954,721.099548 
	C606.599182,714.768066 606.458740,708.434998 606.547668,702.105286 
	C606.646240,695.091248 609.098328,692.219238 616.075562,692.238464 
	C625.389526,692.264160 634.697266,693.240540 644.015015,693.414551 
	C688.651001,694.248047 733.288757,695.433838 777.927307,695.497131 
	C801.211548,695.530151 824.497742,693.480591 847.785522,692.425659 
	C852.443420,692.214661 857.117493,692.076538 861.774841,692.215881 
	C866.739685,692.364319 870.190186,694.790588 870.282166,700.076416 
	C870.456055,710.067200 870.592224,720.076843 870.157471,730.053101 
	C869.909668,735.738342 868.025940,737.032471 860.400818,737.214539 
	C848.742004,737.492981 837.003784,738.095642 825.420044,737.122559 
	C799.790100,734.969360 780.030396,755.895447 779.582458,778.230103 
	C779.101562,802.203857 778.155518,826.171631 777.942139,850.146667 
	C777.538879,895.471252 777.937683,940.805786 777.221985,986.123901 
	C776.396057,1038.418457 775.098938,1090.712769 773.276733,1142.981812 
	C772.256409,1172.250122 770.796204,1201.577393 767.695496,1230.682129 
	C762.383850,1280.539795 749.137146,1328.039429 720.876465,1370.377075 
	C694.626648,1409.702148 659.184204,1438.106934 616.680359,1458.007080 
	C574.044617,1477.968750 529.177551,1486.913696 482.014191,1486.505127 
	C435.432343,1486.101685 389.782745,1480.665039 344.963684,1467.815796 
	C298.308502,1454.440063 261.615753,1427.113647 232.645111,1388.802979 
	C208.608765,1357.017212 194.944855,1320.682983 188.459229,1281.791138 
	C184.360794,1257.214355 181.873566,1232.307373 179.896591,1207.450439 
	C175.110352,1147.272339 175.846985,1086.932007 175.834351,1026.625732 
	C175.817947,948.298279 175.976959,869.970276 175.664124,791.644104 
	C175.620697,780.773315 174.394943,769.644958 171.800278,759.107727 
	C167.829590,742.982239 157.877563,735.921326 141.350082,735.634155 
	C126.688866,735.379333 112.020149,735.569641 97.354851,735.526611 
	C94.358704,735.517822 91.354347,735.456299 88.369148,735.222656 
	C83.690468,734.856384 80.909676,732.199341 80.795471,727.539307 
	C80.567009,718.217407 80.428360,708.880249 80.715202,699.563660 
	C80.877098,694.305176 84.479538,692.080383 89.539673,692.167664 
	C96.535751,692.288269 103.538536,692.300903 110.525330,692.634521 
	C180.781738,695.988953 251.080093,696.532715 321.387238,695.351929 
	C349.354095,694.882263 377.301819,693.298584 405.260193,692.274475 
	C409.920013,692.103760 414.592163,692.097107 419.254089,692.207214 
	C423.442627,692.306152 426.290649,694.164734 426.406708,698.772766 
	C426.666260,709.079224 427.111511,719.389404 427.002960,729.693054 
	C426.954041,734.334717 422.474640,737.226257 415.866516,737.289124 
	C401.535583,737.425476 387.196045,737.076355 372.872833,737.436035 
	C365.598358,737.618774 358.118469,738.024109 351.137207,739.866455 
	C331.953430,744.929077 319.902557,756.998474 317.527832,777.377075 
	C316.873627,782.991211 316.177063,788.629089 316.034576,794.269592 
	C315.176453,828.242065 313.876831,862.217773 313.836639,896.193726 
	C313.736115,981.182861 313.751709,1066.178223 314.722107,1151.159546 
	C315.109497,1185.085571 317.519623,1219.029297 320.156525,1252.875610 
	C322.100250,1277.824951 328.136932,1302.093750 336.752075,1325.682495 
	C348.734161,1358.490112 371.661469,1381.875000 400.463684,1400.198364 
	C434.169678,1421.641357 471.097076,1430.678223 511.878479,1428.250488 
z"/>
<path fill="#FEC326" opacity="1.000000" stroke="none" 
	d="
M1990.250977,1346.328247 
	C2014.108154,1327.805054 2034.611450,1307.005981 2051.995361,1283.151855 
	C2053.555664,1281.010742 2055.422607,1279.064819 2057.327148,1277.213257 
	C2058.483643,1276.088867 2059.985596,1275.319702 2062.263184,1273.749023 
	C2069.439941,1279.456543 2076.873291,1284.960815 2083.803955,1291.038208 
	C2087.714111,1294.466919 2087.609131,1299.110718 2083.869629,1304.594971 
	C2078.995117,1311.744141 2073.876709,1318.750244 2068.501221,1325.530884 
	C2036.417603,1366.000122 2000.096313,1401.938721 1956.304199,1429.823364 
	C1908.586304,1460.207764 1856.816895,1479.045898 1800.348267,1484.405884 
	C1759.352539,1488.297241 1718.573853,1486.244385 1677.844116,1480.487305 
	C1591.652344,1468.303711 1519.748169,1428.681763 1459.671265,1366.784302 
	C1433.897705,1340.229858 1415.271973,1308.631226 1400.050049,1275.027344 
	C1380.383911,1231.612793 1368.017578,1186.064331 1362.625488,1138.839355 
	C1355.520264,1076.610474 1359.621826,1015.155273 1378.668823,955.071167 
	C1397.792603,894.745300 1428.707397,841.392761 1471.538818,794.741882 
	C1523.617065,738.019836 1588.033691,703.183411 1662.922607,688.377380 
	C1769.089111,667.387573 1870.979370,681.962158 1968.152222,729.535034 
	C1972.933716,731.875916 1977.439331,734.782104 1982.230103,737.101440 
	C1990.500854,741.105591 1992.523315,740.279846 1995.476807,731.805115 
	C1998.433472,723.321594 2001.427368,714.836060 2003.919922,706.211243 
	C2005.536133,700.618896 2008.417847,697.578125 2014.476929,697.837891 
	C2018.799805,698.023193 2023.149658,697.617249 2027.468750,697.839966 
	C2035.360107,698.246765 2037.353760,700.256348 2037.920654,708.127319 
	C2038.590210,717.421326 2038.760498,726.764587 2039.770874,736.018433 
	C2044.141357,776.053223 2048.670166,816.071289 2053.278564,856.079590 
	C2056.667969,885.506592 2060.333008,914.901794 2063.740479,944.326782 
	C2064.802734,953.499634 2064.053467,954.491455 2055.625732,957.724854 
	C2050.964355,959.513245 2046.277344,961.251160 2041.535767,962.810669 
	C2035.624023,964.755127 2032.782959,964.024536 2029.739380,958.890137 
	C2027.385376,954.919373 2025.683716,950.510925 2024.079956,946.154236 
	C2003.892822,891.308899 1974.450806,842.125366 1932.481201,801.269958 
	C1893.661987,763.481628 1846.589355,740.682434 1793.139893,732.708618 
	C1750.163940,726.297302 1707.380493,728.326965 1666.067139,743.873474 
	C1623.100342,760.042236 1590.015137,788.430664 1564.386841,826.065308 
	C1539.618896,862.436584 1524.956787,902.901184 1515.947510,945.638550 
	C1509.050781,978.354370 1505.501343,1011.521851 1506.479004,1044.880371 
	C1508.848022,1125.705566 1527.091675,1202.531006 1568.209473,1272.861816 
	C1594.736572,1318.235352 1630.153198,1355.264404 1675.764404,1381.978882 
	C1705.390991,1399.331177 1737.656616,1407.924927 1771.785400,1409.750122 
	C1817.466064,1412.193115 1862.200562,1407.440186 1905.556396,1392.015503 
	C1935.930664,1381.209229 1963.876831,1366.000977 1990.250977,1346.328247 
z"/>
<path fill="#FEC327" opacity="1.000000" stroke="none" 
	d="
M1177.348145,688.433533 
	C1194.555420,694.123474 1211.108276,699.230652 1227.291260,705.320862 
	C1235.989136,708.594238 1242.685181,707.503174 1248.835205,700.674438 
	C1253.067993,695.974670 1257.485596,691.403442 1262.174316,687.166138 
	C1265.086548,684.534302 1268.395264,681.967285 1271.990112,680.541016 
	C1279.910034,677.398560 1284.752686,680.320190 1286.302734,688.821655 
	C1287.134888,693.385803 1287.303101,698.074829 1287.702271,702.713379 
	C1290.071411,730.238953 1292.299194,757.777466 1294.812500,785.289795 
	C1297.052856,809.816223 1299.614258,834.313110 1302.005127,858.825928 
	C1302.619019,865.118408 1303.421753,871.413086 1303.599976,877.721985 
	C1303.797852,884.730652 1302.494995,886.191711 1295.664185,888.321655 
	C1290.579468,889.907043 1285.460938,891.393188 1280.321655,892.792480 
	C1272.326538,894.969482 1268.497925,892.914246 1265.877075,885.248718 
	C1251.823364,844.144592 1231.345337,806.711914 1202.354492,774.147888 
	C1173.289795,741.501038 1136.838745,725.070496 1093.202515,723.970337 
	C1072.333252,723.444092 1052.066406,725.286133 1032.693115,734.002197 
	C990.936890,752.788330 963.303284,795.733826 963.953552,841.334656 
	C964.172791,856.705017 965.457336,871.904785 969.422607,886.825012 
	C974.994873,907.792236 986.112366,925.164062 1002.953735,938.798706 
	C1028.615967,959.574646 1057.976318,973.897888 1088.426636,985.780334 
	C1111.655273,994.844727 1135.631836,1001.994019 1159.282227,1009.975586 
	C1196.465820,1022.524353 1231.503540,1039.122437 1262.046875,1064.249390 
	C1305.583130,1100.065063 1330.415649,1145.824829 1336.199951,1202.057495 
	C1340.227295,1241.208984 1338.926392,1279.917603 1328.002930,1317.894409 
	C1310.901489,1377.349121 1277.413940,1424.647095 1223.110229,1455.714600 
	C1188.864624,1475.306641 1151.620972,1484.098877 1112.202759,1484.444824 
	C1075.765015,1484.764648 1039.724854,1482.211914 1004.425415,1472.420166 
	C973.249329,1463.772095 944.762573,1449.893311 919.198669,1429.969727 
	C915.317993,1426.945312 910.593201,1424.969727 906.166565,1422.687866 
	C899.190552,1419.092041 893.167114,1421.038574 888.480286,1426.746826 
	C885.345154,1430.565063 882.580383,1434.813110 880.356934,1439.225220 
	C877.007507,1445.871826 872.159912,1450.437256 865.040161,1452.548218 
	C854.628967,1455.635010 846.004761,1449.578003 846.155457,1438.739502 
	C846.261536,1431.108765 847.315063,1423.485352 848.067261,1415.870605 
	C851.142456,1384.737183 854.321655,1353.613892 857.350525,1322.475952 
	C859.670898,1298.622070 861.810913,1274.750732 864.058167,1250.889526 
	C864.682495,1244.261230 865.170837,1237.606323 866.175537,1231.033081 
	C866.702942,1227.582886 868.212830,1224.282959 869.487061,1220.257935 
	C880.505798,1222.377808 890.593567,1224.174438 900.608948,1226.310425 
	C905.153931,1227.279907 905.325562,1231.374634 905.660583,1235.051025 
	C906.415161,1243.331177 906.631592,1251.691406 907.909851,1259.887695 
	C916.003784,1311.787720 937.377136,1357.461548 975.292419,1394.033691 
	C1008.453186,1426.019775 1049.291138,1440.932983 1095.356934,1439.511353 
	C1123.427002,1438.645020 1149.791992,1430.475220 1173.580933,1415.181763 
	C1208.940430,1392.449951 1227.209229,1359.615845 1229.684814,1317.944946 
	C1230.795410,1299.247803 1228.922241,1280.657349 1225.049561,1262.339111 
	C1217.771484,1227.913330 1198.194824,1201.997192 1169.327881,1182.586548 
	C1146.816406,1167.449463 1122.212891,1156.445557 1097.312988,1146.042114 
	C1066.927612,1133.346924 1035.491943,1123.201294 1006.215942,1107.803955 
	C972.461060,1090.051025 940.911865,1069.017578 912.000061,1044.223877 
	C893.694214,1028.525391 881.300903,1008.292542 872.833435,985.882141 
	C854.368347,937.012085 849.619324,886.861389 861.888733,835.848572 
	C871.210632,797.090820 891.870850,765.007507 922.816162,739.689819 
	C942.979980,723.192810 964.039490,708.205444 988.187195,697.818176 
	C1018.017822,684.986450 1049.071899,678.887573 1081.456421,679.129272 
	C1090.751831,679.198608 1100.046509,679.381104 1109.341919,679.418030 
	C1132.120483,679.508423 1154.409546,683.269714 1177.348145,688.433533 
z"/>
</svg>